<svg width="20" height="21" viewBox="0 0 20 21" fill="none" xmlns="http://www.w3.org/2000/svg">
<path d="M15.7422 9.79346H4.25781C3.35172 9.79346 2.61719 10.5282 2.61719 11.4347V17.1789C2.61719 18.0853 3.35172 18.8201 4.25781 18.8201H15.7422C16.6483 18.8201 17.3828 18.0853 17.3828 17.1789V11.4347C17.3828 10.5282 16.6483 9.79346 15.7422 9.79346Z" stroke="white" stroke-linecap="round" stroke-linejoin="round"/>
<path d="M5.89844 9.79313V6.51072C5.89844 5.42254 6.33057 4.37892 7.09976 3.60946C7.86895 2.83999 8.9122 2.40771 10 2.40771C11.0878 2.40771 12.1311 2.83999 12.9002 3.60946C13.6694 4.37892 14.1016 5.42254 14.1016 6.51072V9.79313" stroke="white" stroke-linecap="round" stroke-linejoin="round"/>
</svg>
